<svg width="156" height="221" viewBox="0 0 156 221" fill="none" xmlns="http://www.w3.org/2000/svg">
<path fill-rule="evenodd" clip-rule="evenodd" d="M149.911 94.9098C150.182 95.59 149.851 96.3611 149.17 96.6321L138.549 100.863C134.817 102.349 132.368 105.961 132.368 109.978V168.879C132.368 169.611 131.775 170.205 131.042 170.205C130.31 170.205 129.717 169.611 129.717 168.879V133.325L110.842 145.51V189.8C110.842 190.532 110.248 191.126 109.516 191.126C108.784 191.126 108.19 190.532 108.19 189.8V147.219L75.3217 168.406V178.044L90.07 185.524C94.257 187.648 96.8952 191.944 96.8952 196.639V201.146C96.8952 201.878 96.3017 202.472 95.5694 202.472C94.8372 202.472 94.2436 201.878 94.2436 201.146V196.639C94.2436 192.943 92.1667 189.561 88.8705 187.889L75.3217 181.017V208.414C75.3217 209.146 74.7281 209.739 73.9959 209.739C73.2637 209.739 72.6701 209.146 72.6701 208.414V168.407L38.4941 146.424V165.993C38.4941 169.448 40.3117 172.648 43.2792 174.418L51.5923 179.377C55.3618 181.626 57.6706 185.691 57.6706 190.08V196.791C57.6706 197.523 57.077 198.116 56.3448 198.116C55.6126 198.116 55.019 197.523 55.019 196.791V190.08C55.019 186.625 53.2014 183.424 50.234 181.654L41.9208 176.696C38.1514 174.447 35.8425 170.382 35.8425 165.993V144.693L22.1694 135.302C18.7847 132.978 16.7621 129.135 16.7621 125.029V109.833C16.7621 105.986 14.5145 102.504 11.0329 100.912V139.759C11.0329 141.991 12.1077 144.088 13.9207 145.39C16.4269 147.192 17.9127 150.089 17.9127 153.175V168.879C17.9127 169.611 17.3191 170.205 16.5869 170.205C15.8547 170.205 15.2611 169.611 15.2611 168.879V153.175C15.2611 150.943 14.1862 148.847 12.3732 147.544C9.86704 145.743 8.38124 142.845 8.38124 139.759V99.795L0.813655 96.6231C0.13835 96.3401 -0.17964 95.5632 0.103405 94.8879C0.38645 94.2126 1.16335 93.8946 1.83865 94.1776L11.7686 98.3396C16.3999 100.281 19.4137 104.812 19.4137 109.833V125.029C19.4137 128.262 21.006 131.287 23.6705 133.117L37.9024 142.891L73.9951 166.107L108.797 143.674L129.717 130.169V109.978C129.717 104.875 132.827 100.288 137.567 98.3996L148.189 94.1687C148.869 93.8977 149.64 94.2295 149.911 94.9098ZM143.176 108.368C143.908 108.368 144.502 108.961 144.502 109.694V130.891C144.502 131.623 143.908 132.217 143.176 132.217C142.444 132.217 141.85 131.623 141.85 130.891V109.694C141.85 108.961 142.444 108.368 143.176 108.368ZM56.3448 163.481C57.077 163.481 57.6706 164.075 57.6706 164.807V174.619C57.6706 175.351 57.077 175.944 56.3448 175.944C55.6126 175.944 55.019 175.351 55.019 174.619V164.807C55.019 164.075 55.6126 163.481 56.3448 163.481ZM95.5694 163.481C96.3017 163.481 96.8952 164.075 96.8952 164.807V178.858C96.8952 179.59 96.3017 180.184 95.5694 180.184C94.8372 180.184 94.2436 179.59 94.2436 178.858V164.807C94.2436 164.075 94.8372 163.481 95.5694 163.481Z" fill="url(#paint0_linear_1284_55)"/>
<ellipse cx="131.372" cy="169.035" rx="3.46168" ry="3.50233" fill="#D776D7"/>
<ellipse cx="109.856" cy="189.536" rx="3.46168" ry="3.50233" fill="#D371DD"/>
<ellipse cx="74.0867" cy="208.266" rx="3.46168" ry="3.50233" fill="#D371DD"/>
<ellipse cx="56.3211" cy="195.105" rx="3.46168" ry="3.50233" fill="#DC7DD0"/>
<ellipse cx="16.5476" cy="170.553" rx="3.46168" ry="3.50233" fill="#ED96B5"/>
<path d="M73.5661 119.841L30.075 104.608C28.3509 104.004 26.5469 105.284 26.5469 107.111V127.582C26.5469 128.487 27.0085 129.329 27.7712 129.816L73.0094 158.71C73.8876 159.271 75.013 159.265 75.8858 158.696L120.136 129.819C120.886 129.33 121.338 128.494 121.338 127.599V107.138C121.338 105.303 119.52 104.023 117.793 104.641L75.336 119.835C74.7642 120.04 74.1393 120.042 73.5661 119.841Z" fill="url(#paint1_linear_1284_55)"/>
<path d="M73.07 61.3357L5.86281 86.1281C3.54467 86.9833 3.55301 90.2649 5.87547 91.1082L22.6425 97.1969C23.2154 97.4049 23.8424 97.4092 24.4181 97.2091L63.2793 83.7005L34.0906 96.8088C31.9167 97.7851 32.0338 100.91 34.2747 101.721L73.5833 115.943C74.1697 116.155 74.8121 116.154 75.3977 115.939L143.098 91.1336C145.42 90.2829 145.417 86.9978 143.093 86.1521L74.8945 61.3318C74.305 61.1172 73.6585 61.1186 73.07 61.3357Z" fill="url(#paint2_linear_1284_55)"/>
<g filter="url(#filter0_f_1284_55)">
<rect x="76.0859" y="65.5254" width="15.106" height="44.3464" transform="rotate(13.393 76.0859 65.5254)" fill="#7534FF"/>
</g>
<g filter="url(#filter1_f_1284_55)">
<rect x="66.9375" y="120.966" width="12.1635" height="34.5785" transform="rotate(-4.9934 66.9375 120.966)" fill="#7534FF"/>
</g>
<path d="M73.1904 158.822C73.9204 159.288 75.1933 159.219 75.9128 158.737L75.9481 158.714C76.7757 158.159 77.1181 157.115 76.8124 156.167C73.3356 145.38 72.6872 132.85 73.2001 121.176C73.2426 120.208 72.6509 119.324 71.7367 119.003L30.0266 104.398C28.3845 103.929 26.5078 105.477 26.5078 106.979V127.857C26.5078 128.795 27.0539 129.568 27.6807 129.968L73.1904 158.822Z" fill="url(#paint3_linear_1284_55)"/>
<path d="M73.5358 61.1583L5.8676 86.1007C3.31859 87.0939 3.28744 90.3232 6.1013 91.2616L22.9643 97.3608C23.9026 97.5954 24.3718 97.3608 25.0756 97.1262L63.7189 83.5327L34.2525 96.6571C31.9066 97.83 31.672 100.88 34.4871 101.818L70.6134 114.955C72.1997 115.53 73.8878 114.064 74.0602 112.385C75.6182 97.2139 78.9578 85.4376 85.1282 67.4534C85.581 66.1338 85.0594 65.0007 83.7502 64.5188L75.3068 61.1576C74.7352 60.9472 74.1073 60.9475 73.5358 61.1583Z" fill="url(#paint4_linear_1284_55)"/>
<defs>
<filter id="filter0_f_1284_55" x="0.8125" y="0.525391" width="154.969" height="176.64" filterUnits="userSpaceOnUse" color-interpolation-filters="sRGB">
<feFlood flood-opacity="0" result="BackgroundImageFix"/>
<feBlend mode="normal" in="SourceGraphic" in2="BackgroundImageFix" result="shape"/>
<feGaussianBlur stdDeviation="32.5" result="effect1_foregroundBlur_1284_55"/>
</filter>
<filter id="filter1_f_1284_55" x="1.9375" y="54.9072" width="145.129" height="165.506" filterUnits="userSpaceOnUse" color-interpolation-filters="sRGB">
<feFlood flood-opacity="0" result="BackgroundImageFix"/>
<feBlend mode="normal" in="SourceGraphic" in2="BackgroundImageFix" result="shape"/>
<feGaussianBlur stdDeviation="32.5" result="effect1_foregroundBlur_1284_55"/>
</filter>
<linearGradient id="paint0_linear_1284_55" x1="0" y1="151.907" x2="57.3253" y2="267.225" gradientUnits="userSpaceOnUse">
<stop stop-color="#EB92B9"/>
<stop offset="1" stop-color="#B069D4"/>
</linearGradient>
<linearGradient id="paint1_linear_1284_55" x1="41.0061" y1="135.915" x2="140.252" y2="117.346" gradientUnits="userSpaceOnUse">
<stop stop-color="#7534FF"/>
<stop offset="1" stop-color="#F7A7A1"/>
</linearGradient>
<linearGradient id="paint2_linear_1284_55" x1="39.4028" y1="83.0902" x2="154.016" y2="89.4932" gradientUnits="userSpaceOnUse">
<stop stop-color="#7534FF"/>
<stop offset="1" stop-color="#F7A7A1"/>
</linearGradient>
<linearGradient id="paint3_linear_1284_55" x1="46.4472" y1="49.4744" x2="73.0196" y2="182.977" gradientUnits="userSpaceOnUse">
<stop offset="0.245751" stop-color="#F6A2A9"/>
<stop offset="1" stop-color="#BD52FF"/>
</linearGradient>
<linearGradient id="paint4_linear_1284_55" x1="55.6217" y1="52.9963" x2="64.906" y2="185.218" gradientUnits="userSpaceOnUse">
<stop offset="0.0535528" stop-color="#F6A2A9"/>
<stop offset="1" stop-color="#BD52FF"/>
</linearGradient>
</defs>
</svg>
